<svg width="124" height="19" viewBox="0 0 124 19" fill="none" xmlns="http://www.w3.org/2000/svg">
<g clip-path="url(#clip0_3108_14665)">
<path d="M11.9198 16.0665L11.4709 18.6505H0C0.149696 18.5505 0.271944 18.4178 0.356478 18.2636C0.44429 18.106 0.489658 17.9301 0.488534 17.7518V1.23588C0.488534 1.04448 0.444226 0.873919 0.356478 0.724062C0.269123 0.575152 0.147214 0.447101 0 0.349623H3.432C3.29724 0.45261 3.18513 0.579796 3.10208 0.723924C3.01404 0.873782 2.97002 1.04448 2.97002 1.23574V17.477H9.33251C9.58781 17.477 9.83865 17.4397 10.0849 17.3646C10.3239 17.2976 10.5509 17.1966 10.7581 17.0651C10.9708 16.939 11.166 16.788 11.339 16.6157C11.5077 16.4474 11.6581 16.2634 11.7879 16.0665H11.9198ZM13.0423 18.6505C13.1921 18.5506 13.3143 18.4179 13.3988 18.2636C13.4866 18.1059 13.5319 17.9301 13.5307 17.7518V1.23588C13.5307 1.04448 13.4866 0.873919 13.3988 0.724062C13.3115 0.575113 13.1896 0.44705 13.0423 0.349623H16.4743C16.3348 0.447971 16.2218 0.576277 16.1444 0.724062C16.0564 0.873919 16.0124 1.04448 16.0124 1.23588V17.7518C16.0124 17.9348 16.0564 18.1055 16.1444 18.2636C16.2235 18.4218 16.3335 18.5507 16.4743 18.6505H13.0423ZM28.8832 2.72157C28.6719 2.33877 28.3683 2.02671 27.9723 1.78513C27.5764 1.54396 27.1319 1.42317 26.6392 1.42317H21.0422V8.01458H26.2167C26.4279 8.01458 26.6259 7.95645 26.8106 7.83977C26.9922 7.73508 27.1387 7.58355 27.2332 7.40281V9.79972C27.1362 9.6249 26.9955 9.47943 26.8106 9.36276C26.6259 9.24621 26.4279 9.18808 26.2167 9.18808H21.0422V17.7518C21.0422 17.935 21.086 18.1057 21.1742 18.2637C21.262 18.4218 21.3722 18.5507 21.5043 18.6505H18.0721C18.2218 18.5506 18.3441 18.4179 18.4286 18.2637C18.5164 18.1061 18.5617 17.9302 18.5605 17.7518V1.23588C18.5605 1.04448 18.5165 0.873919 18.4286 0.724062C18.3413 0.575141 18.2194 0.447086 18.0721 0.349623H28.6191L29.002 2.72157H28.8832ZM40.1038 2.69648C39.875 2.32204 39.567 2.01424 39.1798 1.77279C38.7924 1.53971 38.3526 1.42317 37.8598 1.42317H32.263V8.01458H37.4374C37.6487 8.01458 37.8467 7.95645 38.0314 7.83977C38.2129 7.735 38.3594 7.58349 38.4539 7.40281V9.79972C38.3569 9.6249 38.2162 9.4793 38.0314 9.36276C37.8467 9.24621 37.6487 9.18808 37.4374 9.18808H32.263V17.4772H38.6517C39.1798 17.4772 39.6551 17.3566 40.0775 17.1151C40.4937 16.8879 40.8397 16.5607 41.0807 16.1663H41.2126L40.7902 18.6505H29.2928C29.4425 18.5505 29.5648 18.4178 29.6493 18.2636C29.7371 18.106 29.7825 17.9301 29.7814 17.7518V1.23588C29.7814 1.04448 29.737 0.873919 29.6493 0.724062C29.5619 0.575149 29.44 0.447097 29.2928 0.349623H39.8398L40.2225 2.69648H40.1038ZM60.1081 18.5633C60.2578 18.4634 60.38 18.3307 60.4644 18.1764C60.5524 18.0188 60.5977 17.8428 60.5965 17.6644V9.07565H49.5875V17.6644C49.5875 17.8476 49.6315 18.0183 49.7196 18.1764C49.8075 18.3345 49.9174 18.4634 50.0495 18.5633H46.6175C46.7672 18.4632 46.8894 18.3306 46.974 18.1764C47.0618 18.0187 47.1071 17.8428 47.106 17.6644V1.14854C47.106 0.957143 47.0617 0.786582 46.974 0.636862C46.8866 0.487922 46.7647 0.359828 46.6175 0.262286H50.0495C49.9174 0.362236 49.8075 0.487004 49.7196 0.636862C49.6315 0.786582 49.5875 0.957143 49.5875 1.14854V7.97715H60.5965V1.14854C60.5965 0.957143 60.5525 0.786582 60.4644 0.636862C60.3773 0.487841 60.2554 0.35972 60.1081 0.262286H63.5667C63.4193 0.359707 63.2973 0.487826 63.21 0.636862C63.1221 0.786582 63.0781 0.957143 63.0781 1.14854V17.6644C63.0781 17.8476 63.1221 18.0183 63.21 18.1764C63.2945 18.3307 63.4169 18.4634 63.5667 18.5633H60.1081ZM81.6148 9.43542C81.6622 8.25411 81.5284 7.0972 81.0976 5.92974C80.7102 4.88114 80.1866 3.98652 79.5266 3.24573C78.8578 2.50508 78.0789 1.93088 77.1903 1.52298C76.3013 1.12345 75.3554 0.923826 74.3521 0.923826C73.349 0.923826 72.403 1.12345 71.5141 1.52298C70.6252 1.93088 69.8509 2.50508 69.1909 3.24573C68.522 3.98652 67.9941 4.88114 67.6068 5.92974C67.2195 6.97833 67.0261 8.14758 67.0261 9.43762C67.0261 10.7278 67.2195 11.8969 67.6068 12.9455C67.9941 14.0026 68.522 14.9013 69.1909 15.642C69.8509 16.391 70.6252 16.9652 71.5141 17.3647C72.403 17.7725 73.349 17.9764 74.3521 17.9764C75.3554 17.9764 76.3013 17.7725 77.1903 17.3647C78.0789 16.9652 78.8578 16.391 79.5266 15.642C80.1863 14.9016 80.7098 14.0033 81.097 12.9467C81.5102 11.8193 81.5676 10.617 81.6148 9.43542ZM84.5733 9.43789C84.5826 10.2969 84.4736 11.1458 84.2391 11.9343C84.0015 12.7416 83.6626 13.4947 83.2227 14.194C82.783 14.8924 82.2506 15.5342 81.6386 16.1038C81.0164 16.6763 80.32 17.1714 79.5662 17.577C78.8093 17.9932 77.9909 18.3135 77.1109 18.5382C76.2309 18.7629 75.3114 18.8752 74.3521 18.8752C73.3929 18.8752 72.4733 18.7629 71.5933 18.5382C70.7132 18.3135 69.8949 17.9932 69.138 17.577C68.3869 17.1733 67.6947 16.6781 67.0789 16.1038C66.4601 15.5369 65.923 14.8947 65.4815 14.194C65.0415 13.4947 64.7028 12.7416 64.4654 11.9343C64.2277 11.1354 64.1089 10.3033 64.1089 9.43762C64.1089 8.5722 64.2277 7.73571 64.4654 6.92842C64.7028 6.12936 65.0415 5.38035 65.4815 4.68138C65.923 3.98057 66.4601 3.33832 67.0789 2.77134C67.6967 2.19579 68.3885 1.69666 69.138 1.28579C69.8949 0.87817 70.7132 0.561864 71.5933 0.337009C72.4733 0.112291 73.3929 0 74.3521 0C75.3114 0 76.2309 0.112428 77.1109 0.337009C77.9909 0.561864 78.8093 0.87817 79.5662 1.28579C80.3183 1.69863 81.0143 2.19754 81.6386 2.77134C82.2503 3.34056 82.7824 3.98213 83.2219 4.68028C84.0875 6.05505 84.5551 7.76519 84.5733 9.43789ZM99.7378 0.262148C99.5904 0.359675 99.4685 0.487803 99.3813 0.636862C99.2933 0.786445 99.2492 0.957143 99.2492 1.14854V13.1952C99.2492 13.986 99.0952 14.7306 98.7873 15.4297C98.4791 16.1288 98.0304 16.7447 97.4409 17.2773C96.8424 17.81 96.1033 18.2304 95.2232 18.5381C94.3343 18.8459 93.318 19 92.1739 19C91.0211 19 90.0046 18.8501 89.1248 18.5506C88.2446 18.251 87.5055 17.8432 86.9072 17.3272C86.3086 16.8114 85.8555 16.208 85.5475 15.5169C85.2395 14.8348 85.0857 14.1024 85.0857 13.3201V1.14841C85.0857 0.957006 85.0414 0.786445 84.9536 0.636724C84.8663 0.48772 84.7443 0.35961 84.597 0.262148H88.0291C87.8971 0.362099 87.7871 0.486867 87.6992 0.636724C87.6112 0.786308 87.5672 0.957006 87.5672 1.14841V13.7569C87.5672 14.3894 87.6992 14.9637 87.9632 15.4796C88.2232 15.9909 88.597 16.4424 89.0589 16.8029C89.5164 17.1692 90.0662 17.4519 90.7089 17.6518C91.3425 17.8515 92.0374 17.9513 92.7944 17.9513C93.5423 17.9513 94.2376 17.8391 94.8801 17.6144C95.5137 17.398 96.0682 17.0983 96.5433 16.7155C97.0096 16.3329 97.3749 15.8874 97.6389 15.3798C97.903 14.8723 98.035 14.3311 98.035 13.7569V1.14854C98.035 0.957143 97.9909 0.786582 97.903 0.636862C97.8157 0.487891 97.6938 0.359788 97.5465 0.262148H99.7378ZM109.982 3.94484C109.815 3.50377 109.59 3.10849 109.309 2.75886C109.03 2.41992 108.697 2.12498 108.321 1.88495C107.943 1.652 107.526 1.47294 107.069 1.34817C106.613 1.23177 106.125 1.17336 105.607 1.17336C105.159 1.17336 104.742 1.24013 104.356 1.37326C103.96 1.51476 103.622 1.71013 103.341 1.95981C103.06 2.20961 102.84 2.50919 102.683 2.85868C102.515 3.2083 102.432 3.59508 102.432 4.0197C102.432 4.38591 102.493 4.71867 102.616 5.01839C102.736 5.31281 102.905 5.58688 103.117 5.82992C103.33 6.07337 103.574 6.29132 103.842 6.47899C104.115 6.67114 104.402 6.84627 104.699 7.00328L108.204 8.92566C108.602 9.14367 108.985 9.38546 109.351 9.64958C109.713 9.92589 110.036 10.2448 110.313 10.5985C110.585 10.9647 110.805 11.3767 110.972 11.8342C111.139 12.3004 111.223 12.8373 111.223 13.4447C111.223 14.3186 111.056 15.0925 110.722 15.7666C110.388 16.4408 109.949 17.0109 109.404 17.4769C108.85 17.943 108.222 18.2968 107.519 18.5379C106.813 18.7783 106.068 18.9008 105.318 18.8999C104.8 18.8999 104.294 18.85 103.802 18.7502C103.312 18.6453 102.832 18.5033 102.366 18.3257C101.917 18.1565 101.483 17.9562 101.065 17.7266C100.658 17.502 100.286 17.2689 99.9499 17.0274V13.8815H100.056C100.249 14.3728 100.509 14.8472 100.834 15.3047C101.148 15.7592 101.53 16.1672 101.969 16.5156C102.41 16.8652 102.907 17.1441 103.461 17.352C104.007 17.5602 104.605 17.6642 105.256 17.6642C105.767 17.6642 106.246 17.5852 106.695 17.427C107.144 17.2771 107.535 17.0649 107.87 16.7902C108.196 16.5156 108.455 16.187 108.649 15.8042C108.834 15.4214 108.926 15.0011 108.926 14.5432C108.926 14.1437 108.856 13.7692 108.715 13.4197C108.576 13.0823 108.385 12.7666 108.147 12.4834C107.908 12.1993 107.638 11.9398 107.342 11.7095C107.043 11.4821 106.725 11.2775 106.392 11.0977L103.171 9.36248C102.22 8.84655 101.477 8.19748 100.94 7.41515C100.403 6.64105 100.135 5.78811 100.135 4.85592C100.135 4.1819 100.28 3.5534 100.57 2.97097C100.852 2.39663 101.248 1.89742 101.758 1.4728C102.269 1.04832 102.872 0.711448 103.567 0.461776C104.262 0.220468 105.014 0.0998138 105.824 0.0998138C106.202 0.0998138 106.59 0.129018 106.986 0.187014C107.374 0.245694 107.758 0.329152 108.134 0.436823C108.504 0.545137 108.856 0.678131 109.19 0.836215C109.524 0.994436 109.824 1.17761 110.088 1.3856V3.9447H109.982V3.94484ZM122.576 2.60914C122.347 2.23471 122.039 1.9269 121.652 1.68546C121.265 1.45237 120.825 1.33583 120.332 1.33583H114.735V7.92711H119.91C120.121 7.92711 120.319 7.86911 120.504 7.75244C120.685 7.64771 120.832 7.49624 120.926 7.31561V9.71238C120.829 9.53743 120.688 9.3921 120.504 9.27528C120.319 9.15888 120.121 9.10061 119.91 9.10061H114.735V17.3898H121.124C121.652 17.3898 122.127 17.2692 122.55 17.0277C122.966 16.8006 123.312 16.4734 123.553 16.0789H123.685L123.263 18.5633H111.765C111.915 18.4632 112.037 18.3305 112.122 18.1763C112.209 18.0186 112.255 17.8428 112.254 17.6644V1.14854C112.254 0.957143 112.209 0.786582 112.122 0.636862C112.034 0.487875 111.912 0.359764 111.765 0.262286H122.312L122.695 2.60914H122.576Z" fill="#1B1C1E"/>
</g>
<defs>
<clipPath id="clip0_3108_14665">
<rect width="124" height="19" fill="white"/>
</clipPath>
</defs>
</svg>
