<svg width="138" height="35" viewBox="0 0 138 35" fill="none" xmlns="http://www.w3.org/2000/svg">
<path d="M100.934 33.5728C103.415 33.5728 105.874 33.5728 108.377 33.5728C108.377 24.874 108.377 15.7402 108.377 7.0625C105.889 7.0625 103.429 7.0625 100.934 7.0625C100.934 15.7473 100.934 24.881 100.934 33.5728Z" fill="#222222"/>
<path d="M137.805 14.12V6.24902L125.428 13.0046L113.051 6.24902V14.12L121.71 18.7921C121.71 19.676 121.71 20.5599 121.71 21.4368L113.051 26.1089V33.9799L125.428 27.2243L137.805 33.9799V26.1159L129.146 21.4439C129.146 20.5599 129.146 19.676 129.146 18.7991L137.805 14.12Z" fill="#222222"/>
<path d="M125.425 8.48764C127.897 8.48764 129.901 6.74764 129.901 4.60124C129.901 2.45484 127.897 0.714844 125.425 0.714844C122.953 0.714844 120.949 2.45484 120.949 4.60124C120.949 6.74764 122.953 8.48764 125.425 8.48764Z" fill="#222222"/>
<path d="M19.8788 7.53415C18.8777 7.13428 17.7837 6.92383 16.6325 6.92383C11.9347 6.94487 9.16039 8.95121 7.95913 11.645V7.53415H0.515625V33.5814H7.95198C7.95198 33.5814 7.98773 19.2144 8.00203 19.2495C8.19509 15.4262 9.09604 12.6061 12.9072 12.6061C17.5978 12.6061 17.8695 16.6398 17.8695 21.6276V33.5814H25.313V15.4402C25.313 11.8695 23.0678 8.79687 19.8788 7.53415Z" fill="#222222"/>
<path d="M42.8501 6.69824C35.1563 6.69824 28.9141 12.8155 28.9141 20.3708C28.9141 27.9191 35.1563 34.0363 42.8501 34.0363C48.6562 34.0363 53.6328 30.5568 55.7207 25.5971H48.0841C47.2404 27.6104 45.6387 28.8802 42.8501 28.8802C39.6682 28.8802 37.5946 26.3196 36.9796 22.6858H56.5716C56.7075 21.9281 56.779 21.1495 56.779 20.3568C56.779 12.8225 50.5439 6.69824 42.8501 6.69824ZM37.0369 17.3472C37.6589 13.8327 39.5037 11.6509 42.8501 11.6509C46.3037 11.6509 48.0913 13.7836 48.6848 17.3472H37.0369Z" fill="#222222"/>
<path d="M70.6956 1.3877C68.1787 1.3877 65.7118 1.3877 63.1949 1.3877C63.1949 3.42911 63.1949 5.43544 63.1949 7.50491C61.5288 7.50491 59.9057 7.50491 58.2969 7.50491C58.2969 9.31482 58.2969 11.0616 58.2969 12.8575C58.2969 12.8645 58.2969 12.8785 58.2969 12.8855C59.9415 12.8855 61.5503 12.8855 63.1949 12.8855C63.1949 13.1381 63.1949 13.3415 63.1949 13.552C63.2092 16.6667 63.2092 19.7814 63.2306 22.8962V33.5662H70.6956V33.5592H76.5016V28.1856H70.6956V25.0077C70.7027 25.0007 70.7027 24.9937 70.7027 24.9937C70.7027 21.1213 70.7027 17.256 70.7027 13.3836C70.7027 13.2293 70.7027 13.0679 70.7027 12.8575C72.6762 12.8575 74.5854 12.8575 76.5016 12.8575C76.5016 11.0546 76.5016 9.30781 76.5016 7.50491C76.5016 7.4979 76.5016 7.49088 76.5016 7.48387C74.5639 7.48387 72.6476 7.48387 70.6956 7.48387C70.6956 5.42141 70.6956 3.41508 70.6956 1.3877Z" fill="#222222"/>
<path d="M87.9982 15.124V7.52657H80.5547V33.5738H87.9982V23.2125C87.9982 21.7463 87.9982 14.7662 96.6072 14.7662H96.6358V6.67773H96.6072C91.8522 6.67773 87.9982 10.4589 87.9982 15.124Z" fill="#222222"/>
</svg>
