<svg width="114" height="50" viewBox="0 0 114 50" fill="none" xmlns="http://www.w3.org/2000/svg">
<path d="M8.14043 21.2784C6.8483 21.2784 5.64846 21.0386 4.54092 20.5589C3.43338 20.0609 2.49197 19.3876 1.71669 18.539C0.94141 17.6905 0.369181 16.7128 0 15.606L2.76885 14.4438C3.26725 15.7167 3.99638 16.6943 4.95625 17.3769C5.91612 18.0594 7.02366 18.4007 8.27887 18.4007C9.01724 18.4007 9.6633 18.29 10.2171 18.0686C10.7708 17.8288 11.1954 17.4968 11.4907 17.0725C11.8045 16.6482 11.9615 16.1594 11.9615 15.606C11.9615 14.8497 11.7492 14.2501 11.3246 13.8074C10.9001 13.3647 10.2724 13.0142 9.44179 12.7559L5.5654 11.5385C4.01484 11.0588 2.83346 10.3302 2.02126 9.35252C1.20907 8.35639 0.802968 7.19424 0.802968 5.86608C0.802968 4.70393 1.08908 3.68936 1.66131 2.82236C2.23354 1.93691 3.01805 1.24516 4.01484 0.747095C5.03009 0.249032 6.18377 0 7.47591 0C8.71266 0 9.83866 0.221361 10.8539 0.664084C11.8692 1.08836 12.7367 1.67866 13.4566 2.43498C14.195 3.19129 14.7303 4.06752 15.0626 5.06364L12.3491 6.25346C11.943 5.1651 11.3062 4.32577 10.4386 3.73547C9.58947 3.14518 8.60191 2.85003 7.47591 2.85003C6.79292 2.85003 6.193 2.96993 5.67615 3.20974C5.1593 3.4311 4.7532 3.76314 4.45786 4.20587C4.18097 4.63014 4.04253 5.12821 4.04253 5.70006C4.04253 6.36414 4.25481 6.95444 4.67936 7.47095C5.10392 7.98746 5.74999 8.37484 6.61756 8.63309L10.2171 9.76757C11.8599 10.2656 13.0967 10.9851 13.9273 11.9258C14.758 12.8482 15.1733 14.0011 15.1733 15.3846C15.1733 16.5283 14.8687 17.5429 14.2596 18.4283C13.6689 19.3138 12.8475 20.0148 11.7953 20.5313C10.7432 21.0293 9.52486 21.2784 8.14043 21.2784Z" fill="#1B1C1E"/>
<path d="M24.4617 21.1123C22.8927 21.1123 21.6744 20.6696 20.8069 19.7842C19.9393 18.8987 19.5055 17.6536 19.5055 16.0487V8.79911H16.8751V5.97676H17.2904C17.9919 5.97676 18.5364 5.77384 18.924 5.36801C19.3117 4.96218 19.5055 4.40878 19.5055 3.7078V2.54566L22.6343 2.54566V5.97676L26.04 5.97676V8.79911H22.6343V15.9103C22.6343 16.4269 22.7174 16.8696 22.8835 17.2385C23.0496 17.589 23.3173 17.8657 23.6865 18.0686C24.0556 18.2531 24.5356 18.3453 25.1263 18.3453C25.2739 18.3453 25.4401 18.3361 25.6247 18.3177C25.8093 18.2992 25.9846 18.2808 26.1507 18.2623V20.9463C25.8923 20.9832 25.6062 21.0201 25.2924 21.057C24.9786 21.0939 24.7017 21.1123 24.4617 21.1123Z" fill="#1B1C1E"/>
<path d="M33.0006 21.2784C31.9854 21.2784 31.0901 21.1031 30.3148 20.7526C29.558 20.3837 28.9673 19.8856 28.5428 19.2584C28.1182 18.6128 27.9059 17.8565 27.9059 16.9895C27.9059 16.1778 28.0813 15.4492 28.432 14.8035C28.8012 14.1579 29.3642 13.6137 30.121 13.171C30.8778 12.7283 31.8285 12.4147 32.9729 12.2302L38.1784 11.3724V13.8351L33.5821 14.6375C32.7514 14.7851 32.1423 15.0526 31.7546 15.44C31.367 15.8089 31.1732 16.2885 31.1732 16.8788C31.1732 17.4507 31.3855 17.921 31.81 18.29C32.253 18.6405 32.816 18.8157 33.499 18.8157C34.3481 18.8157 35.0865 18.6312 35.7141 18.2623C36.3602 17.8934 36.8586 17.4045 37.2093 16.7958C37.56 16.1686 37.7354 15.4768 37.7354 14.7205V10.8744C37.7354 10.1365 37.4585 9.53699 36.9047 9.07582C36.3694 8.5962 35.6495 8.35639 34.745 8.35639C33.9144 8.35639 33.1852 8.57775 32.5576 9.02048C31.9485 9.44475 31.4962 9.99816 31.2009 10.6807L28.5982 9.38019C28.875 8.64232 29.3273 7.99668 29.9549 7.44328C30.5825 6.87143 31.3116 6.4287 32.1423 6.11511C32.9914 5.80151 33.8867 5.64471 34.8281 5.64471C36.0095 5.64471 37.0524 5.86608 37.9569 6.3088C38.8798 6.75152 39.5905 7.36949 40.0889 8.1627C40.6058 8.93747 40.8642 9.84136 40.8642 10.8744V20.9463H37.8738V18.2346L38.5107 18.3177C38.1599 18.9264 37.7077 19.4521 37.1539 19.8949C36.6186 20.3376 36.0002 20.6788 35.2988 20.9186C34.6158 21.1585 33.8497 21.2784 33.0006 21.2784Z" fill="#1B1C1E"/>
<path d="M43.9688 20.9463V5.97676H46.9591V8.90979L46.5992 8.52241C46.9683 7.58163 47.559 6.87143 48.3712 6.39181C49.1834 5.89375 50.1248 5.64471 51.1955 5.64471C52.303 5.64471 53.2813 5.88452 54.1304 6.36414C54.9796 6.84376 55.6441 7.50784 56.124 8.35639C56.604 9.20494 56.8439 10.1826 56.8439 11.2894V20.9463H53.7428V12.1195C53.7428 11.3632 53.6044 10.7268 53.3275 10.2103C53.0506 9.67534 52.6537 9.26951 52.1369 8.99281C51.6385 8.69766 51.0662 8.55008 50.4202 8.55008C49.7741 8.55008 49.1927 8.69766 48.6758 8.99281C48.1774 9.26951 47.7898 9.67534 47.5129 10.2103C47.236 10.7452 47.0976 11.3817 47.0976 12.1195V20.9463H43.9688Z" fill="#1B1C1E"/>
<path d="M59.6387 20.9463V5.97676H62.7675V20.9463H59.6387ZM59.6387 3.92916V0.332041L62.7675 0.332041V3.92916L59.6387 3.92916Z" fill="#1B1C1E"/>
<path d="M71.4096 21.2784C69.8775 21.2784 68.53 20.9002 67.3671 20.1439C66.2226 19.3876 65.4197 18.373 64.9582 17.1002L67.3671 15.9657C67.7732 16.8142 68.327 17.4875 69.0284 17.9856C69.7483 18.4837 70.542 18.7327 71.4096 18.7327C72.148 18.7327 72.7479 18.5667 73.2094 18.2346C73.6708 17.9026 73.9016 17.4507 73.9016 16.8788C73.9016 16.5099 73.8001 16.2147 73.597 15.9934C73.394 15.7536 73.1355 15.5599 72.8217 15.4123C72.5264 15.2647 72.2218 15.154 71.908 15.0802L69.5545 14.4162C68.2623 14.0472 67.2933 13.4938 66.6472 12.7559C66.0196 11.9996 65.7058 11.1234 65.7058 10.1273C65.7058 9.22339 65.9365 8.4394 66.398 7.77532C66.8595 7.09279 67.4963 6.56705 68.3085 6.19812C69.1207 5.82918 70.0344 5.64471 71.0497 5.64471C72.4156 5.64471 73.6339 5.98598 74.7046 6.66851C75.7752 7.3326 76.532 8.26416 76.975 9.4632L74.5661 10.5977C74.2708 9.87825 73.8001 9.3064 73.154 8.88212C72.5264 8.45785 71.8157 8.24571 71.022 8.24571C70.339 8.24571 69.7944 8.41173 69.3884 8.74377C68.9823 9.05737 68.7792 9.47242 68.7792 9.98893C68.7792 10.3394 68.8715 10.6346 69.0561 10.8744C69.2407 11.0957 69.4806 11.2802 69.776 11.4278C70.0713 11.5569 70.3759 11.6676 70.6897 11.7598L73.1263 12.4792C74.3631 12.8297 75.3137 13.3831 75.9782 14.1395C76.6427 14.8773 76.975 15.7628 76.975 16.7958C76.975 17.6812 76.735 18.4652 76.2551 19.1478C75.7936 19.8118 75.1476 20.3376 74.3169 20.725C73.4863 21.0939 72.5172 21.2784 71.4096 21.2784Z" fill="#1B1C1E"/>
<path d="M79.4869 20.9463V0L82.6157 0V20.9463H79.4869Z" fill="#1B1C1E"/>
<path d="M90.2056 21.2784C89.1904 21.2784 88.2951 21.1031 87.5198 20.7526C86.763 20.3837 86.1723 19.8856 85.7477 19.2584C85.3232 18.6128 85.1109 17.8565 85.1109 16.9895C85.1109 16.1778 85.2863 15.4492 85.637 14.8035C86.0062 14.1579 86.5692 13.6137 87.326 13.171C88.0828 12.7283 89.0334 12.4147 90.1779 12.2302L95.3834 11.3724V13.8351L90.7871 14.6375C89.9564 14.7851 89.3473 15.0526 88.9596 15.44C88.572 15.8089 88.3782 16.2885 88.3782 16.8788C88.3782 17.4507 88.5904 17.921 89.015 18.29C89.458 18.6405 90.021 18.8157 90.704 18.8157C91.5531 18.8157 92.2915 18.6312 92.9191 18.2623C93.5651 17.8934 94.0635 17.4045 94.4143 16.7958C94.765 16.1686 94.9403 15.4768 94.9403 14.7205V10.8744C94.9403 10.1365 94.6635 9.53699 94.1097 9.07582C93.5744 8.5962 92.8545 8.35639 91.95 8.35639C91.1193 8.35639 90.3902 8.57775 89.7626 9.02048C89.1534 9.44475 88.7012 9.99816 88.4058 10.6807L85.8031 9.38019C86.08 8.64232 86.5322 7.99668 87.1599 7.44328C87.7875 6.87143 88.5166 6.4287 89.3473 6.11511C90.1964 5.80151 91.0916 5.64471 92.033 5.64471C93.2144 5.64471 94.2574 5.86608 95.1618 6.3088C96.0848 6.75152 96.7955 7.36949 97.2939 8.1627C97.8107 8.93747 98.0691 9.84136 98.0691 10.8744V20.9463L95.0788 20.9463V18.2346L95.7156 18.3177C95.3649 18.9264 94.9127 19.4521 94.3589 19.8949C93.8236 20.3376 93.2052 20.6788 92.5037 20.9186C91.8208 21.1585 91.0547 21.2784 90.2056 21.2784Z" fill="#1B1C1E"/>
<path d="M105.25 20.9463L99.3805 5.97676H102.786L107.299 18.1793H106.053L110.567 5.97676H114L108.102 20.9463H105.25Z" fill="#1B1C1E"/>
<path d="M0.913722 44.466L0.913722 23.8517H8.41732C9.80174 23.8517 11.02 24.1099 12.0722 24.6265C13.1244 25.1245 13.9458 25.8624 14.5365 26.8401C15.1456 27.7993 15.4502 28.9522 15.4502 30.2988C15.4502 31.7192 15.0903 32.9367 14.3704 33.9513C13.6689 34.9659 12.7183 35.7037 11.5184 36.1649L16.2809 44.466H12.5706L7.5036 35.4732L9.63561 36.7183H4.18097L4.18097 44.466H0.913722ZM4.18097 33.813H8.47269C9.22951 33.813 9.88481 33.6654 10.4386 33.3702C10.9924 33.0751 11.4169 32.6693 11.7123 32.1527C12.0261 31.6178 12.183 30.9906 12.183 30.2712C12.183 29.5517 12.0261 28.9338 11.7123 28.4173C11.4169 27.8823 10.9924 27.4765 10.4386 27.1998C9.88481 26.9046 9.22951 26.7571 8.47269 26.7571H4.18097V33.813Z" fill="#1B1C1E"/>
<path d="M22.6574 44.798C21.6422 44.798 20.7469 44.6228 19.9717 44.2723C19.2148 43.9033 18.6241 43.4053 18.1996 42.7781C17.775 42.1324 17.5628 41.3761 17.5628 40.5091C17.5628 39.6975 17.7381 38.9688 18.0888 38.3232C18.458 37.6776 19.021 37.1334 19.7778 36.6906C20.5347 36.2479 21.4853 35.9343 22.6298 35.7499L27.8352 34.8921V37.3547L23.2389 38.1572C22.4083 38.3047 21.7991 38.5722 21.4115 38.9596C21.0238 39.3285 20.83 39.8082 20.83 40.3985C20.83 40.9703 21.0423 41.4407 21.4668 41.8096C21.9099 42.1601 22.4729 42.3354 23.1558 42.3354C24.005 42.3354 24.7433 42.1509 25.3709 41.782C26.017 41.413 26.5154 40.9242 26.8661 40.3154C27.2168 39.6883 27.3922 38.9965 27.3922 38.2402V34.394C27.3922 33.6562 27.1153 33.0566 26.5615 32.5955C26.0262 32.1158 25.3063 31.876 24.4018 31.876C23.5712 31.876 22.842 32.0974 22.2144 32.5401C21.6053 32.9644 21.153 33.5178 20.8577 34.2003L18.255 32.8998C18.5319 32.162 18.9841 31.5163 19.6117 30.9629C20.2393 30.3911 20.9684 29.9483 21.7991 29.6348C22.6482 29.3212 23.5435 29.1644 24.4849 29.1644C25.6663 29.1644 26.7092 29.3857 27.6137 29.8284C28.5366 30.2712 29.2473 30.8891 29.7457 31.6823C30.2626 32.4571 30.521 33.361 30.521 34.394V44.466H27.5306V41.7543L28.1675 41.8373C27.8167 42.446 27.3645 42.9718 26.8107 43.4145C26.2754 43.8572 25.657 44.1985 24.9556 44.4383C24.2726 44.6781 23.5066 44.798 22.6574 44.798Z" fill="#1B1C1E"/>
<path d="M33.6256 50V29.4964H36.6159V32.5955L36.256 31.876C36.8098 31.0275 37.5481 30.3634 38.4711 29.8838C39.394 29.4042 40.4462 29.1644 41.6276 29.1644C43.0489 29.1644 44.3226 29.5056 45.4486 30.1882C46.593 30.8707 47.4883 31.8022 48.1344 32.9828C48.7989 34.1634 49.1312 35.4916 49.1312 36.9674C49.1312 38.4431 48.7989 39.7713 48.1344 40.9519C47.4883 42.1324 46.6023 43.0732 45.4763 43.7742C44.3503 44.4567 43.0674 44.798 41.6276 44.798C40.4646 44.798 39.4032 44.5582 38.4434 44.0786C37.502 43.599 36.7728 42.9072 36.256 42.0033L36.7544 41.4222V50H33.6256ZM41.323 41.8926C42.209 41.8926 42.9935 41.6805 43.6765 41.2562C44.3595 40.832 44.8948 40.2509 45.2824 39.513C45.6885 38.7567 45.8916 37.9081 45.8916 36.9674C45.8916 36.0266 45.6885 35.1872 45.2824 34.4494C44.8948 33.7115 44.3595 33.1304 43.6765 32.7061C42.9935 32.2819 42.209 32.0697 41.323 32.0697C40.4554 32.0697 39.6709 32.2819 38.9695 32.7061C38.2865 33.1304 37.7419 33.7115 37.3358 34.4494C36.9482 35.1872 36.7544 36.0266 36.7544 36.9674C36.7544 37.9081 36.9482 38.7567 37.3358 39.513C37.7419 40.2509 38.2865 40.832 38.9695 41.2562C39.6709 41.6805 40.4554 41.8926 41.323 41.8926Z" fill="#1B1C1E"/>
<path d="M51.621 50V29.4964H54.6113V32.5955L54.2514 31.876C54.8051 31.0275 55.5435 30.3634 56.4664 29.8838C57.3894 29.4042 58.4416 29.1644 59.6229 29.1644C61.0443 29.1644 62.318 29.5056 63.444 30.1882C64.5884 30.8707 65.4837 31.8022 66.1298 32.9828C66.7943 34.1634 67.1265 35.4916 67.1265 36.9674C67.1265 38.4431 66.7943 39.7713 66.1298 40.9519C65.4837 42.1324 64.5977 43.0732 63.4717 43.7742C62.3457 44.4567 61.0628 44.798 59.6229 44.798C58.46 44.798 57.3986 44.5582 56.4388 44.0786C55.4974 43.599 54.7682 42.9072 54.2514 42.0033L54.7498 41.4222V50H51.621ZM59.3184 41.8926C60.2044 41.8926 60.9889 41.6805 61.6719 41.2562C62.3549 40.832 62.8902 40.2509 63.2778 39.513C63.6839 38.7567 63.887 37.9081 63.887 36.9674C63.887 36.0266 63.6839 35.1872 63.2778 34.4494C62.8902 33.7115 62.3549 33.1304 61.6719 32.7061C60.9889 32.2819 60.2044 32.0697 59.3184 32.0697C58.4508 32.0697 57.6663 32.2819 56.9648 32.7061C56.2819 33.1304 55.7373 33.7115 55.3312 34.4494C54.9436 35.1872 54.7498 36.0266 54.7498 36.9674C54.7498 37.9081 54.9436 38.7567 55.3312 39.513C55.7373 40.2509 56.2819 40.832 56.9648 41.2562C57.6663 41.6805 58.4508 41.8926 59.3184 41.8926Z" fill="#1B1C1E"/>
</svg>
