<svg width="154" height="49" viewBox="0 0 154 49" fill="none" xmlns="http://www.w3.org/2000/svg">
<path fill-rule="evenodd" clip-rule="evenodd" d="M14.7236 38.4355H18.4941C20.8824 38.4355 22.4263 39.737 22.4263 41.7527V41.7817C22.4263 44.1441 20.3535 45.2018 18.3005 45.2018H15.812V48.6887C15.808 48.7768 15.7375 48.8466 15.6485 48.8503H14.7167C14.6342 48.8435 14.5697 48.7798 14.5617 48.6984V38.5899C14.5695 38.5054 14.6375 38.4395 14.7236 38.4355ZM18.3451 44.0657C20.0289 44.0657 21.1606 43.1671 21.1606 41.8293V41.799C21.1606 40.4175 20.1301 39.5918 18.4039 39.5918H15.8114V44.0657H18.3451Z" fill="#1B1C1E"/>
<path fill-rule="evenodd" clip-rule="evenodd" d="M21.1606 41.8293C21.1606 43.1671 20.0289 44.0657 18.3451 44.0657H15.8114V39.5918H18.4039C20.1301 39.5918 21.1606 40.4175 21.1606 41.799V41.8293ZM18.4941 38.4355H14.7236C14.6375 38.4395 14.5695 38.5054 14.5617 38.5899V48.6984C14.5697 48.7798 14.6342 48.8435 14.7167 48.8503H15.6485C15.7375 48.8466 15.808 48.7768 15.812 48.6887V45.2018H18.3005C20.3535 45.2018 22.4263 44.1441 22.4263 41.7817V41.7527C22.4263 39.737 20.8824 38.4355 18.4941 38.4355Z" fill="#1B1C1E"/>
<path d="M50.4105 46.4038C50.3462 46.3461 50.2493 46.3439 50.1836 46.4008C49.2768 47.2438 48.3634 47.801 46.9382 47.801C44.7011 47.801 42.9482 45.9424 42.9482 43.5694V43.5402C42.9482 41.1458 44.6634 39.3392 46.9382 39.3392C48.4233 39.3392 49.3986 40.0283 50.0889 40.6615C50.157 40.7196 50.2579 40.7163 50.3218 40.6536L50.9529 39.9807C51.0114 39.9142 51.0085 39.8152 50.9469 39.7517C50.0475 38.9276 48.9278 38.1855 46.9528 38.1855C45.4824 38.1855 44.1301 38.7489 43.1468 39.7732C42.1835 40.7763 41.6533 42.1242 41.6533 43.5694V43.5997C41.6533 46.6526 43.9123 48.9544 46.9087 48.9544C48.9345 48.9544 50.122 48.0883 51.0108 47.2131C51.0684 47.1479 51.0671 47.0517 51.0085 46.9876L50.4105 46.4038Z" fill="#1B1C1E"/>
<path d="M86.53 38.4648H85.637C85.5483 38.469 85.4778 38.5386 85.474 38.6269V46.6788L79.0624 38.5746C78.9996 38.4921 78.9623 38.4695 78.8776 38.4648H77.9802C77.8939 38.4695 77.8261 38.5364 77.8196 38.6214V48.7233C77.8261 48.8082 77.8937 48.875 77.9802 48.8798H78.8805C78.967 48.8745 79.0351 48.8074 79.0406 48.7217V40.4721L85.6268 48.7839C85.6924 48.8618 85.7312 48.8809 85.8248 48.8798H86.5318C86.6194 48.8761 86.689 48.8082 86.695 48.7217V38.6302C86.693 38.5401 86.6205 38.4684 86.53 38.4648Z" fill="#1B1C1E"/>
<path d="M144.869 47.7251H139.176V38.622C139.17 38.5371 139.102 38.4703 139.016 38.4648H138.09C138 38.4681 137.929 38.5388 137.925 38.6275V48.7178C137.929 48.8056 137.999 48.8759 138.088 48.8796H144.867C144.956 48.8765 145.026 48.8078 145.032 48.7207V47.8858C145.027 47.7982 144.957 47.7292 144.869 47.7251Z" fill="#1B1C1E"/>
<path d="M4.40849 43.0247C2.55527 42.63 1.61503 42.2168 1.61503 41.0528V41.0234C1.61503 40.0625 2.50893 39.392 3.7909 39.392C4.84602 39.392 5.76364 39.7251 6.66929 40.4302C6.73759 40.4801 6.83073 40.4748 6.8895 40.4133L7.43901 39.6897C7.48136 39.6236 7.47139 39.5407 7.41883 39.4849C6.32402 38.6357 5.24141 38.2676 3.8215 38.2676C1.81794 38.2676 0.36366 39.4702 0.36366 41.1266V41.1569C0.36366 42.7821 1.35225 43.6295 3.8867 44.1772C6.13641 44.6488 6.56241 45.2185 6.56241 46.1045V46.1335C6.56241 47.1467 5.62416 47.8538 4.28098 47.8538C2.95311 47.8538 1.94589 47.4545 0.835557 46.4843C0.767256 46.4295 0.669683 46.4354 0.607592 46.4962L0.0347958 47.17C-0.0168734 47.2371 -0.00999892 47.3296 0.0487664 47.3897C1.30235 48.4716 2.63599 48.978 4.23707 48.978C6.38456 48.978 7.82753 47.7882 7.82753 46.0159V45.9869C7.82753 44.4293 6.80523 43.5441 4.40849 43.0247Z" fill="#1B1C1E"/>
<path d="M65.0107 38.4648H57.7359C57.6488 38.4697 57.5801 38.5377 57.575 38.6242V48.7222C57.5807 48.8074 57.6484 48.8745 57.7348 48.8798H65.0098C65.0996 48.8759 65.1703 48.805 65.1736 48.7163V47.9027C65.1697 47.8155 65.1007 47.7464 65.0131 47.7406H58.8254V44.1978H64.1733C64.2642 44.1945 64.3361 44.122 64.3385 44.032V43.2184C64.3339 43.1322 64.2653 43.0639 64.1782 43.0584H58.8254V39.604H65.012C65.1005 39.599 65.1703 39.5289 65.1736 39.4409V38.6271C65.1697 38.5393 65.0996 38.469 65.0107 38.4648Z" fill="#1B1C1E"/>
<path d="M101.372 38.4648H94.0975C94.0104 38.4697 93.9416 38.5377 93.9365 38.6242V48.7222C93.9423 48.8074 94.0099 48.8745 94.0964 48.8798H101.371C101.461 48.8759 101.532 48.805 101.535 48.7163V47.9027C101.531 47.8155 101.462 47.7464 101.375 47.7406H95.187V44.1978H100.535C100.626 44.1945 100.698 44.122 100.7 44.032V43.2184C100.695 43.1322 100.627 43.0639 100.54 43.0584H95.187V39.604H101.374C101.462 39.599 101.532 39.5289 101.535 39.4409V38.6271C101.531 38.5393 101.461 38.469 101.372 38.4648Z" fill="#1B1C1E"/>
<path d="M115.615 38.4648H108.34C108.253 38.4697 108.184 38.5377 108.18 38.6242V48.7222C108.185 48.8074 108.253 48.8745 108.339 48.8798H115.614C115.704 48.8759 115.775 48.805 115.778 48.7163V47.9027C115.774 47.8155 115.705 47.7464 115.617 47.7406H109.43V44.1978H114.778C114.869 44.1945 114.94 44.122 114.943 44.032V43.2184C114.938 43.1322 114.87 43.0639 114.783 43.0584H109.43V39.604H115.616C115.705 39.599 115.775 39.5289 115.778 39.4409V38.6271C115.774 38.5393 115.704 38.469 115.615 38.4648Z" fill="#1B1C1E"/>
<path d="M157.838 39.604C157.927 39.5992 157.997 39.5289 158 39.4407V38.6271C157.996 38.539 157.926 38.469 157.837 38.4648H150.562C150.475 38.4699 150.406 38.5377 150.401 38.624V48.7222C150.407 48.8076 150.475 48.8745 150.561 48.8798H157.836C157.926 48.8759 157.997 48.805 158 48.716V47.9027C157.996 47.8153 157.927 47.7464 157.839 47.7409H151.652V44.1976H157C157.091 44.1943 157.162 44.122 157.165 44.0323V43.2187C157.16 43.1322 157.092 43.0639 157.004 43.0586H151.652V39.604H157.838Z" fill="#1B1C1E"/>
<path fill-rule="evenodd" clip-rule="evenodd" d="M122.825 38.459H126.312C129.538 38.459 131.88 40.6374 131.88 43.6367V43.6659C131.88 46.6834 129.538 48.874 126.312 48.874H122.824C122.736 48.8691 122.668 48.8006 122.663 48.7144V38.6166C122.669 38.5308 122.738 38.4632 122.825 38.459ZM130.584 43.6988V43.6984V43.6687C130.584 41.2824 128.828 39.6152 126.312 39.6152H123.913V47.7214V47.722H126.312C128.828 47.722 130.584 46.0676 130.584 43.6988Z" fill="#1B1C1E"/>
<path fill-rule="evenodd" clip-rule="evenodd" d="M130.584 43.6984V43.6988C130.584 46.0676 128.828 47.722 126.312 47.722H123.913V47.7214V39.6152H126.312C128.828 39.6152 130.584 41.2824 130.584 43.6687V43.6984ZM126.312 38.459H122.825C122.738 38.4632 122.669 38.5308 122.663 38.6166V48.7144C122.668 48.8006 122.736 48.8691 122.824 48.874H126.312C129.538 48.874 131.88 46.6834 131.88 43.6659V43.6367C131.88 40.6374 129.538 38.459 126.312 38.459Z" fill="#1B1C1E"/>
<path fill-rule="evenodd" clip-rule="evenodd" d="M35.9178 44.8211C36.183 44.7855 36.4153 44.7543 36.6059 44.7283C36.9449 44.6811 37.2545 44.6383 37.2718 44.7979C37.2869 44.9389 37.0617 44.9873 36.6399 45.0778C36.591 45.0883 36.5395 45.0993 36.4855 45.1111C35.8923 45.2422 35.2829 45.3873 34.6755 45.5381L34.7351 45.6762L36.1759 48.9998H35.0026C34.9086 48.9989 34.8394 48.9508 34.8043 48.8694L33.5993 46.0007L33.5951 45.9904L33.5272 45.8314C32.5582 46.0876 31.6275 46.3522 30.8176 46.6003C29.9387 46.8685 29.276 47.1075 28.8531 47.26C28.6676 47.3269 28.5283 47.3772 28.437 47.4059L28.2858 47.7579L27.8064 48.8746C27.7669 48.9589 27.6944 49.002 27.6037 48.9998L26.4499 48.9999L31.3766 37.9277L34.4506 45.0198C34.9984 44.9444 35.4991 44.8772 35.9178 44.8211ZM29.5228 44.9045L29.1046 45.8544C30.3207 45.6206 31.8508 45.3855 33.2525 45.1851L33.1328 44.9045L31.349 40.6719L29.5228 44.9045Z" fill="#1B1C1E"/>
<path fill-rule="evenodd" clip-rule="evenodd" d="M29.1046 45.8544L29.5228 44.9045L31.349 40.6719L33.1328 44.9045L33.2525 45.1851C31.8508 45.3855 30.3207 45.6206 29.1046 45.8544ZM36.6059 44.7283C36.1145 44.7955 35.3454 44.8967 34.4506 45.0198L31.3766 37.9277L26.4499 48.9999L27.6037 48.9998C27.6944 49.002 27.7669 48.9589 27.8064 48.8746L28.2858 47.7579L28.437 47.4059C28.7362 47.3115 29.5531 46.9862 30.8176 46.6003C31.6275 46.3522 32.5582 46.0876 33.5272 45.8314L33.5951 45.9904L33.5993 46.0007L34.8043 48.8694C34.8394 48.9508 34.9086 48.9989 35.0026 48.9998H36.1759L34.7351 45.6762L34.6755 45.5381C35.2829 45.3873 35.8923 45.2422 36.4855 45.1111C37.0064 44.9972 37.2887 44.9553 37.2718 44.7979C37.2545 44.6383 36.9449 44.6811 36.6059 44.7283Z" fill="#1B1C1E"/>
<path fill-rule="evenodd" clip-rule="evenodd" d="M65.2915 13.6228C65.2915 6.09913 71.4523 0 79.0521 0C86.6519 0 92.8128 6.09913 92.8128 13.6228C92.8128 21.1465 86.6519 27.2456 79.0521 27.2456C71.4523 27.2456 65.2915 21.1465 65.2915 13.6228ZM81.0874 14.4438C80.7042 14.3817 80.3363 14.3738 80.2645 14.776C80.0004 16.2519 79.7968 21.942 79.7968 24.2601C79.7968 24.5227 79.8043 24.7569 79.9675 24.7569C80.1172 24.7569 80.1429 24.5113 80.1589 24.3176C80.3736 21.7379 80.9018 18.2793 81.2333 16.9397C81.4515 16.0649 81.6879 15.1149 81.7167 14.9413C81.7604 14.6625 81.4052 14.4954 81.0874 14.4438ZM77.2406 14.4428C77.5827 14.3822 78.0511 14.3739 78.1181 14.7809C78.4033 16.5121 78.541 19.8872 78.6118 21.6226C78.621 21.8491 78.6292 22.0477 78.6363 22.211L78.6363 22.2113C78.6498 22.5045 78.6622 22.7726 78.4917 22.7733C78.3412 22.7739 78.3139 22.5778 78.2627 22.2098C78.2567 22.1669 78.2504 22.1216 78.2436 22.0741C77.9987 20.3863 77.6266 18.5349 77.2734 17.104C77.0831 16.3287 76.9006 15.7408 76.7842 15.3662L76.7842 15.3661L76.7842 15.3661C76.719 15.1562 76.6746 15.0132 76.6613 14.9418C76.6081 14.6568 76.9605 14.4928 77.2406 14.4428ZM87.6635 11.6869C85.217 11.0175 82.2136 10.3229 78.4734 9.93585C78.2311 9.91082 78.1632 9.90182 78.1659 9.84891C78.1681 9.80479 78.2291 9.73476 78.4672 9.72027C78.9966 9.68799 79.823 9.68799 80.907 9.77427C81.7069 9.83807 82.333 9.92007 82.7414 9.97355C83.0118 10.009 83.1867 10.0319 83.2534 10.0287C83.6282 10.0107 83.7087 9.7622 83.6749 9.35079C83.649 9.03202 83.5601 8.71919 83.3696 8.65355C82.5039 8.35454 77.6458 8.31678 75.5365 8.77736C74.7462 8.94992 74.5342 9.08032 74.4676 9.33015C74.4195 9.51017 74.3809 9.77625 74.3745 9.94573C74.3636 10.2252 74.4129 10.493 74.6909 10.6485C74.9351 10.7836 75.9706 10.8681 77.0387 10.9553C77.2948 10.9762 77.5528 10.9973 77.8022 11.0193C79.9421 11.2076 80.9549 11.3848 81.5534 11.4924C81.8113 11.5389 81.8821 11.6199 81.8821 11.6801C81.8821 11.7301 81.8242 11.7424 81.7071 11.7303C77.6505 11.3068 73.3087 11.6678 70.749 12.0634C70.1223 12.16 69.6347 12.2691 69.836 13.206C70.0048 13.9926 70.2953 13.9988 70.6497 13.9314C74.7273 13.1575 77.4984 12.9632 79.6397 12.9878C82.8265 13.0594 85.5725 13.5433 87.6444 13.9342C88.0961 14.0192 88.3365 13.6811 88.4704 13.1624C88.7099 12.2348 88.5356 11.9255 87.6635 11.6869ZM79.2671 7.45448C79.1534 7.47095 78.9493 7.48127 78.8301 7.45448C78.8249 7.45332 78.8197 7.45218 78.8145 7.45105C78.6936 7.42457 78.5863 7.40111 78.6097 7.14911L78.919 2.92898C78.9256 2.72416 78.9292 2.58168 78.9292 2.5347C78.9292 2.2043 79.1731 2.17905 79.1731 2.5347C79.1731 2.58212 79.1769 2.72723 79.1833 2.93513L79.1835 2.92898L79.497 7.2029C79.5125 7.41453 79.4095 7.43429 79.2671 7.45448Z" fill="#1B1C1E"/>
</svg>
