<svg width="156" height="34" viewBox="0 0 156 34" fill="none" xmlns="http://www.w3.org/2000/svg">
<path fill-rule="evenodd" clip-rule="evenodd" d="M42.3652 34H43.0453V0H42.3652V34Z" fill="#1B1C1E"/>
<mask id="mask0_3108_2421" style="mask-type:alpha" maskUnits="userSpaceOnUse" x="0" y="5" width="16" height="4">
<path fill-rule="evenodd" clip-rule="evenodd" d="M0 5.42969H15.1425V8.89792H0V5.42969Z" fill="white"/>
</mask>
<g mask="url(#mask0_3108_2421)">
<path fill-rule="evenodd" clip-rule="evenodd" d="M15.1426 5.42969H0.583923C0.261709 5.42969 0 5.68673 0 6.00426V8.89792H15.1426V5.42969Z" fill="#1B1C1E"/>
</g>
<mask id="mask1_3108_2421" style="mask-type:alpha" maskUnits="userSpaceOnUse" x="0" y="12" width="16" height="19">
<path fill-rule="evenodd" clip-rule="evenodd" d="M0 12.6641H15.1425V30.224H0V12.6641Z" fill="white"/>
</mask>
<g mask="url(#mask1_3108_2421)">
<path fill-rule="evenodd" clip-rule="evenodd" d="M15.1426 25.291L8.44143 21.6224C8.20085 21.4906 8.05151 21.2411 8.05151 20.9699V12.6641H0V21.4485C0 21.7486 0.165189 22.025 0.431699 22.1705L15.1426 30.224V25.291Z" fill="#1B1C1E"/>
</g>
<path fill-rule="evenodd" clip-rule="evenodd" d="M31.8028 10.8768V6.00379C31.8028 5.68673 31.5415 5.42969 31.2188 5.42969H16.6602V8.89792H23.915C24.2243 8.89792 24.4754 9.14457 24.4754 9.44934V12.111C24.4754 12.4158 24.2243 12.6624 23.915 12.6624H16.6602V30.2223L31.3663 22.1717C31.6357 22.0247 31.8028 21.7445 31.8028 21.4412V15.5877C31.8028 15.3193 31.6717 15.067 31.4508 14.9101L29.0901 13.2323L31.4508 11.5548C31.6717 11.3975 31.8028 11.1452 31.8028 10.8768Z" fill="#1B1C1E"/>
<path fill-rule="evenodd" clip-rule="evenodd" d="M60.6176 7.73207H57.6125V23.3571H53.4055V7.73207H50.4014V5.35156H60.6176V7.73207Z" fill="#1B1C1E"/>
<path fill-rule="evenodd" clip-rule="evenodd" d="M67.5042 21.0352C67.7006 21.0352 67.8254 20.8982 67.8254 20.7186V7.98064C67.8254 7.75053 67.7136 7.66406 67.5042 7.66406H65.8811C65.6679 7.66406 65.5613 7.78739 65.5613 7.98064V20.7186C65.5613 20.9067 65.7006 21.0352 65.8811 21.0352H67.5042ZM72.0454 21.9315C72.044 22.8808 71.5614 23.3561 70.5991 23.3571H62.7891C61.8258 23.3561 61.3432 22.8808 61.3418 21.9315V6.77855C61.3432 5.82974 61.8258 5.35345 62.7891 5.35156H70.5991C71.5614 5.35345 72.044 5.82974 72.0454 6.77855V21.9315Z" fill="#1B1C1E"/>
<path fill-rule="evenodd" clip-rule="evenodd" d="M79.5514 5.35156H83.7709V21.9315C83.7694 22.8808 83.2859 23.3561 82.324 23.3571H74.5904C73.6286 23.3561 73.146 22.8808 73.1445 21.9315V5.35156H77.3636V20.7228C77.3636 20.9421 77.461 21.0399 77.6598 21.0399H79.2306C79.4001 21.0399 79.5514 20.9236 79.5514 20.7233V5.35156Z" fill="#1B1C1E"/>
<path fill-rule="evenodd" clip-rule="evenodd" d="M91.1749 20.7233V15.1505H89.8918V12.8583H95.4069V21.9315C95.4049 22.8803 94.9233 23.3561 93.9605 23.3571H86.3297C85.3669 23.3561 84.8852 22.8803 84.8828 21.9315V6.77855C84.8852 5.82927 85.3793 5.35345 86.3637 5.35156H93.9605C94.9233 5.35345 95.4049 5.82927 95.4069 6.77855V10.8469H91.1749V7.98534C91.1749 7.7798 91.0735 7.66876 90.8551 7.66876H89.4231C89.2435 7.66876 89.1023 7.79917 89.1023 7.98534V20.7233C89.1023 20.9104 89.2181 21.0399 89.4231 21.0399H90.8536C91.0154 21.0399 91.1749 20.918 91.1749 20.7233Z" fill="#1B1C1E"/>
<path fill-rule="evenodd" clip-rule="evenodd" d="M114.874 20.7706C114.874 20.9771 114.755 21.0872 114.553 21.0872H112.866V14.2344H113.439C113.509 14.2344 113.562 14.2533 113.626 14.2949L114.747 15.0263C114.832 15.0707 114.874 15.1898 114.874 15.2782V20.7706ZM112.866 7.60547L114.485 7.61492C114.684 7.61492 114.805 7.73872 114.805 7.93197V10.9527C114.805 11.0685 114.777 11.146 114.689 11.206L113.58 11.9809C113.519 12.0239 113.465 12.0461 113.384 12.0461H112.866V7.60547ZM118.476 14.076C118.42 14.0221 117.929 13.7141 117.001 13.1504C117.898 12.6013 118.373 12.3046 118.428 12.2583C118.818 11.9185 119.012 11.4408 119.012 10.8228V6.77855C119.01 5.82974 118.544 5.35345 117.614 5.35156H108.646V23.3575H117.659C118.621 23.3566 119.104 22.8808 119.106 21.9315V15.5701C119.106 14.9369 118.896 14.4389 118.476 14.076Z" fill="#1B1C1E"/>
<path fill-rule="evenodd" clip-rule="evenodd" d="M102.936 5.35156V11.9218H100.723V5.35156H96.5029V23.3571H100.723V14.429H102.936V23.3571H107.169V5.35156H102.936Z" fill="#1B1C1E"/>
<path fill-rule="evenodd" clip-rule="evenodd" d="M126.978 5.35156H131.198V21.9315C131.196 22.8808 130.715 23.3561 129.752 23.3571H122.018C121.056 23.3561 120.575 22.8808 120.571 21.9315V5.35156H124.791V20.7233C124.791 20.9298 124.908 21.0399 125.111 21.0399H126.657C126.856 21.0399 126.978 20.9236 126.978 20.7233V5.35156Z" fill="#1B1C1E"/>
<mask id="mask2_3108_2421" style="mask-type:alpha" maskUnits="userSpaceOnUse" x="0" y="0" width="156" height="34">
<path fill-rule="evenodd" clip-rule="evenodd" d="M0 34H156V0H0V34Z" fill="white"/>
</mask>
<g mask="url(#mask2_3108_2421)">
<path fill-rule="evenodd" clip-rule="evenodd" d="M132.771 23.3571H136.991V5.35156H132.771V23.3571Z" fill="#1B1C1E"/>
<path fill-rule="evenodd" clip-rule="evenodd" d="M147.22 23.3571H138.559V5.35156H142.779V20.9515H147.22V23.3571Z" fill="#1B1C1E"/>
<path fill-rule="evenodd" clip-rule="evenodd" d="M156 7.73207H152.996V23.3571H148.788V7.73207H145.785V5.35156H156V7.73207Z" fill="#1B1C1E"/>
<path fill-rule="evenodd" clip-rule="evenodd" d="M155.018 22.1888C155.198 22.1888 155.351 22.1496 155.351 21.97C155.351 21.8496 155.275 21.7603 155.095 21.7603H154.619V22.1888H155.018ZM154.426 21.6211H155.105C155.376 21.6211 155.543 21.7463 155.543 21.9424C155.543 22.0912 155.467 22.2136 155.292 22.2547V22.2576C155.461 22.2854 155.495 22.3908 155.509 22.5113C155.521 22.6313 155.514 22.766 155.594 22.8501H155.38C155.325 22.8005 155.355 22.6677 155.327 22.5472C155.307 22.4267 155.272 22.3251 155.087 22.3251H154.618V22.8501H154.426V21.6211Z" fill="#1B1C1E"/>
<path fill-rule="evenodd" clip-rule="evenodd" d="M154.892 21.2969C154.348 21.2969 153.904 21.7339 153.904 22.2712C153.904 22.8084 154.348 23.2455 154.892 23.2455C155.437 23.2455 155.88 22.8084 155.88 22.2712C155.88 21.7339 155.437 21.2969 154.892 21.2969ZM154.894 23.358C154.286 23.358 153.79 22.8694 153.79 22.2688C153.79 21.6683 154.286 21.1797 154.894 21.1797C155.504 21.1797 155.999 21.6683 155.999 22.2688C155.999 22.8694 155.504 23.358 154.894 23.358Z" fill="#1B1C1E"/>
<path fill-rule="evenodd" clip-rule="evenodd" d="M53.4043 31.5098H54.4098V25.8789H53.4043V31.5098Z" fill="#1B1C1E"/>
<path fill-rule="evenodd" clip-rule="evenodd" d="M58.4121 25.8789H59.3442L62.4098 29.7719V25.8789H63.3995V31.5098H62.5572L59.4013 27.5034V31.5098H58.4121V25.8789Z" fill="#1B1C1E"/>
<path fill-rule="evenodd" clip-rule="evenodd" d="M68.3311 26.7734V30.6027H69.4595C70.6615 30.6027 71.4461 29.806 71.4461 28.7041V28.6881C71.4461 27.5862 70.6615 26.7734 69.4595 26.7734H68.3311ZM67.3262 25.875H69.4602C71.2585 25.875 72.5013 27.0894 72.5013 28.6742V28.6902C72.5013 30.275 71.2585 31.5059 69.4602 31.5059H67.3262V25.875Z" fill="#1B1C1E"/>
<path fill-rule="evenodd" clip-rule="evenodd" d="M76.083 29.1203V25.8789H77.0885V29.0802C77.0885 30.1258 77.6365 30.681 78.5359 30.681C79.4266 30.681 79.9745 30.158 79.9745 29.1203V25.8789H80.9796V29.0721C80.9796 30.7538 80.0154 31.5977 78.5195 31.5977C77.0314 31.5977 76.083 30.7538 76.083 29.1203Z" fill="#1B1C1E"/>
<path fill-rule="evenodd" clip-rule="evenodd" d="M84.4297 30.6922L85.0352 29.9844C85.5826 30.4503 86.1387 30.7163 86.8412 30.7163C87.4626 30.7163 87.8559 30.4267 87.8559 30.0085V29.9924C87.8559 29.5898 87.6264 29.373 86.5637 29.1315C85.3454 28.8419 84.6592 28.488 84.6592 27.4503V27.4338C84.6592 26.4689 85.4765 25.8008 86.6127 25.8008C87.4463 25.8008 88.109 26.0503 88.6895 26.5086L88.1498 27.2566C87.635 26.8791 87.1198 26.6778 86.5963 26.6778C86.0076 26.6778 85.6643 26.9754 85.6643 27.3459V27.3615C85.6643 27.7957 85.926 27.989 87.03 28.2465C88.2401 28.5366 88.8614 28.9624 88.8614 29.8956V29.9121C88.8614 30.9653 88.0192 31.5928 86.8172 31.5928C85.9423 31.5928 85.1169 31.2951 84.4297 30.6922Z" fill="#1B1C1E"/>
<path fill-rule="evenodd" clip-rule="evenodd" d="M93.7834 26.7956H91.9688V25.8789H96.6128V26.7956H94.7971V31.5098H93.7834V26.7956Z" fill="#1B1C1E"/>
<path fill-rule="evenodd" clip-rule="evenodd" d="M102.609 28.664C103.328 28.664 103.786 28.294 103.786 27.7227V27.7066C103.786 27.1033 103.345 26.7734 102.6 26.7734H101.138V28.664H102.609ZM100.133 25.875H102.683C103.402 25.875 103.967 26.0834 104.335 26.4378C104.637 26.7435 104.809 27.1616 104.809 27.6521V27.6687C104.809 28.5938 104.245 29.1486 103.451 29.3739L104.997 31.5059H103.803L102.397 29.5426H101.138V31.5059H100.133V25.875Z" fill="#1B1C1E"/>
<path fill-rule="evenodd" clip-rule="evenodd" d="M108.552 31.5098H109.558V25.8789H108.552V31.5098Z" fill="#1B1C1E"/>
<path fill-rule="evenodd" clip-rule="evenodd" d="M113.538 25.8789H117.781V26.7634H114.544V28.2278H117.413V29.1128H114.544V30.6248H117.822V31.5098H113.538V25.8789Z" fill="#1B1C1E"/>
<path fill-rule="evenodd" clip-rule="evenodd" d="M121.086 30.6922L121.691 29.9844C122.239 30.4503 122.795 30.7163 123.497 30.7163C124.119 30.7163 124.512 30.4267 124.512 30.0085V29.9924C124.512 29.5898 124.283 29.373 123.22 29.1315C122.002 28.8419 121.315 28.488 121.315 27.4503V27.4338C121.315 26.4689 122.133 25.8008 123.269 25.8008C124.103 25.8008 124.765 26.0503 125.346 26.5086L124.806 27.2566C124.291 26.8791 123.776 26.6778 123.253 26.6778C122.664 26.6778 122.321 26.9754 122.321 27.3459V27.3615C122.321 27.7957 122.582 27.989 123.686 28.2465C124.896 28.5366 125.518 28.9624 125.518 29.8956V29.9121C125.518 30.9653 124.675 31.5928 123.473 31.5928C122.599 31.5928 121.774 31.2951 121.086 30.6922Z" fill="#1B1C1E"/>
<path fill-rule="evenodd" clip-rule="evenodd" d="M134.117 31.5098H135.123V25.8789H134.117V31.5098Z" fill="#1B1C1E"/>
<path fill-rule="evenodd" clip-rule="evenodd" d="M139.106 25.8789H140.038L143.104 29.7719V25.8789H144.093V31.5098H143.252L140.096 27.5034V31.5098H139.106V25.8789Z" fill="#1B1C1E"/>
<path fill-rule="evenodd" clip-rule="evenodd" d="M147.766 28.7094V28.6933C147.766 27.0925 148.984 25.7812 150.717 25.7812C151.772 25.7812 152.41 26.1432 152.958 26.6578L152.312 27.3901C151.854 26.9715 151.363 26.6904 150.709 26.6904C149.622 26.6904 148.82 27.5749 148.82 28.6773V28.6933C148.82 29.7952 149.614 30.6883 150.709 30.6883C151.412 30.6883 151.862 30.4147 152.352 29.9644L152.998 30.6084C152.401 31.2194 151.747 31.6054 150.677 31.6054C149.009 31.6054 147.766 30.3263 147.766 28.7094Z" fill="#1B1C1E"/>
<path fill-rule="evenodd" clip-rule="evenodd" d="M154.354 31.4991H155.439V30.3906H154.354V31.4991Z" fill="#1B1C1E"/>
</g>
</svg>
