<?xml version="1.0" encoding="utf-8"?>
<!-- Generator: Adobe Illustrator 19.2.1, SVG Export Plug-In . SVG Version: 6.00 Build 0)  -->
<svg version="1.1" id="Color" xmlns="http://www.w3.org/2000/svg" xmlns:xlink="http://www.w3.org/1999/xlink" x="0px" y="0px"
	 viewBox="0 0 99 108" style="enable-background:new 0 0 99 108;" xml:space="preserve">
<style type="text/css">
	.st0{fill:#231F20;}
</style>
<g>
	<g>
		<path class="st0" d="M55.7,39.7l-3-5c-0.8-1.3-1.6-2.7-2.5-4.1c-2.8-4.7-6.5-7.2-10.3-6.9c-2.2,0.2-6.2,1.4-8.9,8.1
			c-1,2.6-1.9,5.2-2.8,7.7c-1.9,5.5-3.7,10.7-6.6,14.3c-3,3.8-6.9,5.5-12.6,5.5H6.1v5.8H9c16.5,0,20.6-12.1,24.6-23.7
			c0.8-2.4,1.7-5,2.7-7.4c1.1-2.7,2.6-4.4,3.9-4.5c1.5-0.1,3.3,1.4,4.9,4.1c1,1.6,1.9,3.2,2.8,4.7l3.1,5c1.7,2.8,3,5.1,3.8,7
			c1.9,4.6,0.7,6.9-0.6,8c-2,1.7-5.4,1.9-7.6,0.4c-2.5-1.6-2.4-4.5-1.8-6.6c0.4-1.6,1.6-3.9,3.8-6.3l-3.2-5.1
			c-3.1,3.3-5.3,6.7-6.2,9.9c-1.5,5.5,0.1,10.4,4.3,13c2,1.2,4.3,1.8,6.6,1.8c2.9,0,5.7-0.9,7.9-2.8c1.9-1.6,5.8-6.2,2.2-14.7
			C59.3,45.8,57.7,43,55.7,39.7z"/>
		<path class="st0" d="M84.2,31.1h3v-5.9h-3c-2.6,0-5.2,0.2-7.8,0.6V10.3h-6v16.6c-5.3,1.3-10.3,3.4-14.9,6l-0.1,0l3,5.1l0.1,0
			c3.7-2.2,7.7-3.9,11.9-5.1v17.8c0,7.4,3.7,12.7,9.8,14.2l2.8,0.7l0.1,0l1.5-5.8l-2.9-0.7c-4.3-1.1-5.2-5.2-5.2-8.4V31.7
			C79,31.3,81.6,31.1,84.2,31.1z"/>
	</g>
	<g>
		<path class="st0" d="M6.1,92.9l2-0.8c0.1,1.1,1,1.9,2.1,1.9s1.7-0.6,1.7-1.3c0-0.6-0.4-1-1.3-1.1c-0.4-0.1-0.8-0.2-1.1-0.2
			c-1.8-0.4-3-1.5-3-3.2c0-2,1.9-3.1,3.7-3.1c1.9,0,3.6,1.2,3.8,3.1h-2.2c0-0.7-0.7-1.2-1.6-1.2c-0.9,0-1.6,0.5-1.6,1.2
			c0,0.7,0.5,1.1,1.3,1.2l1.1,0.2c1.7,0.4,3,1.4,3,3.2c0,1.8-1.7,3.2-3.8,3.2S6.6,94.8,6.1,92.9z"/>
		<path class="st0" d="M14.7,85.3h2v-2.2l1.8-2.2H19v4.5h2.3v2H19v5.4c0,0.7,0.5,1.1,1.1,1.1l1.3-0.2v2l-1.2,0.2
			c-2.2,0-3.4-1.1-3.4-3.1v-5.4h-2V85.3z"/>
		<path class="st0" d="M27.9,85.1c2.9,0,5.5,2.2,5.5,5.5c0,3.2-2.6,5.5-5.5,5.5c-2.9,0-5.5-2.2-5.5-5.5C22.4,87.3,25,85.1,27.9,85.1
			z M27.9,94c2.1,0,3.2-1.6,3.2-3.5c0-1.9-1.1-3.5-3.2-3.5c-2.1,0-3.2,1.6-3.2,3.5C24.7,92.5,25.8,94,27.9,94z"/>
		<path class="st0" d="M35.4,85.3h2l0.2,1.1l0.1,0.1l0.1-0.1c0.7-0.9,1.6-1.3,2.5-1.3c0.4,0,0.7,0,1.1,0.2v2h-1.3
			c-1.3,0-2.4,1.1-2.5,2.4v6.1h-2.2V85.3z"/>
		<path class="st0" d="M48.8,85.3H51l-5.6,15h-2.2l2.2-5.9l-3.5-9.1h2.3l2.3,6.3L48.8,85.3z"/>
		<path class="st0" d="M51.5,85.3h2v-2.2l1.8-2.2h0.4v4.5h2.3v2h-2.3v5.4c0,0.7,0.5,1.1,1.1,1.1l1.3-0.2v2l-1.2,0.2
			c-2.2,0-3.4-1.1-3.4-3.1v-5.4h-2V85.3z"/>
		<path class="st0" d="M60.2,85.3h2l0.2,1.1l0.1,0.1l0.1-0.1c0.7-0.9,1.6-1.3,2.5-1.3c0.4,0,0.7,0,1.1,0.2v2h-1.3
			c-1.3,0-2.4,1.1-2.5,2.4v6.1h-2.2V85.3z"/>
		<path class="st0" d="M77.4,95.8h-2l-0.2-0.9L75,94.8l-0.1,0.1C74.2,95.6,73.1,96,72,96c-2.9,0-5.4-2.2-5.4-5.5
			c0-3.2,2.5-5.5,5.4-5.5c1.1,0,2.2,0.4,2.9,1.1l0.1,0.1l0.1-0.1l0.2-0.9h2V95.8z M72.1,87.1c-2.1,0-3.3,1.6-3.3,3.5
			c0,1.9,1.1,3.5,3.3,3.5c1.9,0,3.2-1.6,3.2-3.5C75.3,88.7,74,87.1,72.1,87.1z"/>
		<path class="st0" d="M80,80.9h2.2v2.5H80V80.9z M80.1,85.3h2.2v10.5h-2.2V85.3z"/>
		<path class="st0" d="M85,80.9h2.2v15H85V80.9z"/>
	</g>
	<g>
		<path class="st0" d="M90.6,80.9c0.7,0,1.2,0.5,1.2,1.2c0,0.7-0.6,1.2-1.2,1.2c-0.7,0-1.2-0.5-1.2-1.2
			C89.3,81.4,89.9,80.9,90.6,80.9z M90.6,83.1c0.6,0,1-0.4,1-1c0-0.6-0.4-1-1-1c-0.6,0-1,0.4-1,1C89.6,82.7,90,83.1,90.6,83.1z
			 M90.1,81.4h0.6c0.3,0,0.5,0.2,0.5,0.4c0,0.3-0.2,0.4-0.5,0.4l0.5,0.5l0,0.1h-0.2l-0.5-0.6h0v0.6h-0.3V81.4z M90.7,82
			c0.1,0,0.2-0.1,0.2-0.2c0-0.1-0.1-0.2-0.2-0.2h-0.3V82H90.7z"/>
	</g>
</g>
</svg>
